<svg width="38" height="38" viewBox="0 0 38 38" fill="none" xmlns="http://www.w3.org/2000/svg">
<path id="Ellipse 53" d="M8.61466e-06 38C9.48718e-06 33.0098 0.982913 28.0684 2.89259 23.458C4.80227 18.8476 7.60133 14.6586 11.13 11.1299C14.6586 7.60131 18.8477 4.80225 23.458 2.89257C28.0684 0.98289 33.0098 -7.73478e-06 38 -6.64413e-06L38 13.4895C34.7812 13.4895 31.594 14.1235 28.6202 15.3552C25.6465 16.587 22.9445 18.3924 20.6685 20.6684C18.3924 22.9445 16.587 25.6465 15.3552 28.6202C14.1235 31.594 13.4895 34.7812 13.4895 38L8.61466e-06 38Z" fill="#BE554B"/>
</svg>
